# xmcd CD database file
#
# Track frame offsets:
#	150
#	18600
#	37385
#	56325
#	76335
#	96897
#	112165
#	129812
#	152465
#	176927
#	191270
#	208552
#	223485
#	240797
#	258437
#
# Disc length: 3678 seconds
#
# Revision: 9
# Processed by: cddbd v1.5.1PL0 Copyright (c) Steve Scherf et al.
# Submitted via: CDex 1.51
#
DISCID=ce0e5c0f
DTITLE=Journey - Journey's Greatest Hits
DYEAR=1988
DGENRE=Rock
TTITLE0=Only The Young
TTITLE1=Don't Stop Believin'
TTITLE2=Wheel In The Sky
TTITLE3=Faithfully
TTITLE4=I'll Be Alright Without You
TTITLE5=Any Way You Want It
TTITLE6=Ask The Lonely
TTITLE7=Who's Crying Now
TTITLE8=Separate Ways (Worlds Apart)
TTITLE9=Lights
TTITLE10=Lovin', Touchin', Squeezin'
TTITLE11=Open Arms
TTITLE12=Girl Can't Help It
TTITLE13=Send Her My Love
TTITLE14=Be Good To Yourself
EXTD=\t\t\t\t\t YEAR: 1988
EXTT0=
EXTT1=
EXTT2=\t\t\t\t\t
EXTT3=
EXTT4=
EXTT5=
EXTT6=
EXTT7=
EXTT8=
EXTT9=
EXTT10=
EXTT11=
EXTT12=
EXTT13=
EXTT14=
PLAYORDER=
